#!OML:ASF H:\Dans Jumps\Project 1\Capture day 1\Session 1\subject.ASF
:FULLY-SPECIFIED
:DEGREES
347
root 0.841396 17.5973 10.4513 18.4027 -0.36001 -3.4294
lowerback 11.9196 1.00045 -0.970718
upperback 7.2189 1.2237 1.43663
thorax 0.812712 0.547755 1.90229
lowerneck -13.6961 0.319286 0.929214
upperneck 11.4124 0.40428 -1.10627
head 5.69645 0.152833 -0.464663
rclavicle 5.26779e-015 -3.67752e-015
rhumerus -37.6119 -24.896 -67.8723
rradius 20.9253
rwrist 39.7652
rhand -23.0314 -26.7756
rfingers 7.12502
rthumb 3.4128 -56.728
lclavicle 5.26779e-015 -3.67752e-015
lhumerus -37.7759 2.8998 84.9557
lradius 17.2051
lwrist 15.9912
lhand -22.8086 -4.86539
lfingers 7.12502
lthumb 3.62797 25.0835
rfemur -33.4215 -0.523786 21.346
rtibia 30.195
rfoot -12.1022 -1.4582
rtoes 6.76808
lfemur -33.1178 7.37648 -19.5951
ltibia 31.8663
lfoot -11.0394 5.3143
ltoes -8.52435
348
root 0.844115 17.6037 10.4763 18.4901 -0.447917 -3.40936
lowerback 11.8919 0.997806 -0.971864
upperback 7.21258 1.21977 1.39827
thorax 0.821854 0.546407 1.86383
lowerneck -13.7478 0.337752 0.910533
upperneck 11.3754 0.438473 -1.15054
head 5.69387 0.165116 -0.47254
rclavicle -1.10325e-014 -3.97569e-015
rhumerus -37.9069 -25.0063 -67.499
rradius 20.7965
rwrist 40.0715
rhand -23.0491 -26.7439
rfingers 7.12502
rthumb 3.39568 -56.6966
lclavicle -1.10325e-014 -3.97569e-015
lhumerus -37.9095 3.1194 84.8822
lradius 17.0489
lwrist 15.4624
lhand -22.8567 -4.77722
lfingers 7.12502
lthumb 3.58145 25.1724
rfemur -33.4447 -0.590979 21.3408
rtibia 30.1998
rfoot -12.0745 -1.34237
rtoes 6.74923
lfemur -33.0614 7.33458 -19.6143
ltibia 31.7882
lfoot -10.9805 5.40664
ltoes -8.66658
349
root 0.846275 17.6102 10.5008 18.5692 -0.532601 -3.39247
lowerback 11.8594 0.995625 -0.977057
upperback 7.21082 1.21611 1.36502
thorax 0.838173 0.544885 1.83306
lowerneck -13.7838 0.353452 0.879577
upperneck 11.3249 0.469307 -1.1803
head 5.6843 0.176411 -0.474119
rclavicle 1.00386e-014 9.93923e-017
rhumerus -38.1557 -25.0772 -67.1754
rradius 20.6932
rwrist 40.2976
rhand -23.0809 -26.7309
rfingers 7.12502
rthumb 3.36502 -56.6841
lclavicle 1.00386e-014 9.93923e-017
lhumerus -38.0043 3.33578 84.8037
lradius 16.8955
lwrist 14.8863
lhand -22.9111 -4.75009
lfingers 7.12502
lthumb 3.52894 25.2004
rfemur -33.4527 -0.64142 21.3319
rtibia 30.193
rfoot -12.0488 -1.23192
rtoes 6.73911
lfemur -32.9941 7.29303 -19.6255
ltibia 31.704
lfoot -10.9275 5.49173
ltoes -8.79837
350
root 0.847944 17.6165 10.5252 18.6421 -0.611524 -3.3765
lowerback 11.8222 0.993223 -0.984195
upperback 7.21077 1.21205 1.33446
thorax 0.858741 0.543018 1.80631
lowerneck -13.8178 0.369165 0.847138
upperneck 11.2741 0.499554 -1.20369
head 5.67428 0.187869 -0.473497
rclavicle -7.25564e-015 -4.96962e-017
rhumerus -38.3645 -25.1018 -66.9076
rradius 20.6193
rwrist 40.421
rhand -23.1115 -26.7274
rfingers 7.12502
rthumb 3.33543 -56.681
lclavicle -7.25564e-015 -4.96962e-017
lhumerus -38.0658 3.52229 84.7315
lradius 16.751
lwrist 14.3296
lhand -22.9751 -4.79004
lfingers 7.12502
lthumb 3.46716 25.1615
rfemur -33.4431 -0.675908 21.3164
rtibia 30.169
rfoot -12.03 -1.12939
rtoes 6.73196
lfemur -32.9196 7.25476 -19.6326
ltibia 31.6175
lfoot -10.8845 5.56295
ltoes -8.918
